<svg width="48" height="48" viewBox="0 0 48 48" fill="none" xmlns="http://www.w3.org/2000/svg">
<path d="M12.0855 36.0855C5.41089 29.5053 5.33429 18.7602 11.9145 12.0855C18.4946 5.41083 29.2398 5.33423 35.9145 11.9144C42.5891 18.4946 42.6657 29.2397 36.0855 35.9144C29.5054 42.5891 18.7602 42.6657 12.0855 36.0855ZM33.4839 14.3799C28.1709 9.14205 19.6177 9.20302 14.3799 14.516C9.1421 19.8291 9.20307 28.3822 14.5161 33.62C19.8291 38.8579 28.3823 38.7969 33.6201 33.4839C38.8579 28.1708 38.7969 19.6177 33.4839 14.3799Z" fill="#FFC459"/>
<path d="M29.649 21.2606C29.649 19.8245 29.1579 18.4351 28.2633 17.34C27.3686 16.2449 26.1286 15.5153 24.7642 15.2813C23.3998 15.0472 21.9997 15.3239 20.8135 16.0621C19.6272 16.8002 18.7319 17.9518 18.2872 19.3116C17.8425 20.6714 17.8772 22.151 18.3851 23.4867C18.8931 24.8224 19.8413 25.9273 21.0607 26.6046C22.2802 27.2819 23.6916 27.4875 25.0434 27.1847C26.3952 26.882 27.5995 26.0906 28.4418 24.9516L27.1726 23.9395C26.5613 24.7662 25.6872 25.3406 24.706 25.5603C23.7249 25.78 22.7005 25.6308 21.8154 25.1393C20.9304 24.6477 20.2422 23.8457 19.8735 22.8763C19.5048 21.9068 19.4796 20.8329 19.8024 19.846C20.1252 18.8591 20.775 18.0233 21.636 17.4875C22.4969 16.9518 23.5131 16.751 24.5034 16.9209C25.4937 17.0907 26.3937 17.6203 27.043 18.4151C27.6923 19.2099 28.0487 20.2183 28.0487 21.2606H29.649Z" fill="#FFC459"/>
<path d="M17.8476 27.4595C18.0281 28.8739 18.7049 30.1782 19.7576 31.14C20.8102 32.1018 22.1701 32.6585 23.595 32.711C25.0199 32.7635 26.4171 32.3082 27.5376 31.4264C28.6581 30.5446 29.4291 29.2936 29.7131 27.8963C29.997 26.499 29.7756 25.0463 29.0882 23.7971C28.4009 22.5479 27.2922 21.5833 25.9599 21.0754C24.6276 20.5675 23.1582 20.5492 21.8136 21.0238C20.4691 21.4984 19.3367 22.435 18.6185 23.6667L20.0438 24.4979C20.5651 23.6039 21.3869 22.9241 22.3628 22.5796C23.3387 22.2352 24.4051 22.2485 25.3721 22.6171C26.3391 22.9858 27.1438 23.6858 27.6427 24.5925C28.1416 25.4992 28.3023 26.5536 28.0962 27.5677C27.89 28.5818 27.3305 29.4898 26.5172 30.1298C25.704 30.7698 24.6899 31.1002 23.6557 31.0622C22.6216 31.0241 21.6345 30.62 20.8705 29.9219C20.1065 29.2239 19.6153 28.2772 19.4843 27.2506L17.8476 27.4595Z" fill="#FFC459"/>
</svg>
