<svg width="19" height="20" viewBox="0 0 19 20" fill="none" xmlns="http://www.w3.org/2000/svg">
<path d="M18.7491 12.4151L17.2819 11.2275C17.3513 10.8245 17.3872 10.4131 17.3872 10.0017C17.3872 9.59031 17.3513 9.17889 17.2819 8.77597L18.7491 7.58838C18.8598 7.49869 18.939 7.37923 18.9762 7.24589C19.0134 7.11255 19.0069 6.97164 18.9574 6.8419L18.9373 6.78676C18.5333 5.718 17.9285 4.72723 17.152 3.86234L17.1116 3.81781C17.0174 3.71294 16.8919 3.63756 16.7515 3.6016C16.6112 3.56564 16.4626 3.57078 16.3254 3.61634L14.5042 4.22922C13.8322 3.70753 13.0818 3.29612 12.2709 3.00771L11.9192 1.20513C11.8927 1.06949 11.8232 0.944712 11.72 0.847363C11.6168 0.750014 11.4847 0.684705 11.3413 0.660112L11.2808 0.649508C10.1138 0.450164 8.88623 0.450164 7.71917 0.649508L7.65869 0.660112C7.51532 0.684705 7.38325 0.750014 7.28002 0.847363C7.17679 0.944712 7.10729 1.06949 7.08076 1.20513L6.72684 3.01619C5.92241 3.30466 5.1733 3.71586 4.5092 4.23346L2.67461 3.61634C2.53744 3.57041 2.38876 3.56509 2.24832 3.60107C2.10788 3.63706 1.98233 3.71265 1.88836 3.81781L1.84803 3.86234C1.07241 4.72784 0.46767 5.71844 0.0627256 6.78676L0.0425652 6.8419C-0.0582365 7.10699 0.024645 7.40388 0.250889 7.58838L1.73603 8.78869C1.66659 9.18738 1.63299 9.59455 1.63299 9.9996C1.63299 10.4068 1.66659 10.8139 1.73603 11.2105L0.250889 12.4108C0.140221 12.5005 0.0610152 12.62 0.0238026 12.7533C-0.0134099 12.8867 -0.00686572 13.0276 0.0425652 13.1573L0.0627256 13.2124C0.468172 14.2813 1.0685 15.2674 1.84803 16.1369L1.88836 16.1814C1.98256 16.2863 2.10811 16.3616 2.24847 16.3976C2.38883 16.4336 2.5374 16.4284 2.67461 16.3829L4.5092 15.7657C5.17673 16.2853 5.92266 16.6967 6.72684 16.983L7.08076 18.7941C7.10729 18.9297 7.17679 19.0545 7.28002 19.1518C7.38325 19.2492 7.51532 19.3145 7.65869 19.3391L7.71917 19.3497C8.89695 19.5501 10.103 19.5501 11.2808 19.3497L11.3413 19.3391C11.4847 19.3145 11.6168 19.2492 11.72 19.1518C11.8232 19.0545 11.8927 18.9297 11.9192 18.7941L12.2709 16.9915C13.0815 16.7038 13.8361 16.2911 14.5042 15.77L16.3254 16.3829C16.4626 16.4288 16.6112 16.4341 16.7517 16.3981C16.8921 16.3621 17.0177 16.2865 17.1116 16.1814L17.152 16.1369C17.9315 15.2653 18.5318 14.2813 18.9373 13.2124L18.9574 13.1573C19.0582 12.8965 18.9754 12.5996 18.7491 12.4151ZM15.6915 9.02621C15.7475 9.34643 15.7766 9.67513 15.7766 10.0038C15.7766 10.3325 15.7475 10.6613 15.6915 10.9815L15.5436 11.8319L17.2169 13.187C16.9633 13.7402 16.6431 14.264 16.2627 14.7478L14.1839 14.0501L13.4805 14.5972C12.9452 15.0129 12.3493 15.3395 11.7042 15.5685L10.8507 15.8718L10.4498 17.9288C9.81712 17.9967 9.1784 17.9967 8.54574 17.9288L8.14478 15.8675L7.29804 15.56C6.65963 15.331 6.06602 15.0044 5.53514 14.5909L4.83176 14.0416L2.73957 14.7457C2.35876 14.2601 2.04068 13.7362 1.78531 13.1849L3.47654 11.817L3.33094 10.9688C3.27718 10.6528 3.24806 10.3262 3.24806 10.0038C3.24806 9.67938 3.27494 9.35491 3.33094 9.03893L3.47654 8.19066L1.78531 6.82282C2.03844 6.26932 2.35876 5.74763 2.73957 5.26199L4.83176 5.96606L5.53514 5.4168C6.06602 5.00327 6.65963 4.67668 7.29804 4.44765L8.14702 4.14439L8.54799 2.08309C9.17743 2.01523 9.82033 2.01523 10.452 2.08309L10.853 4.14015L11.7064 4.44341C12.3493 4.67244 12.9474 4.99903 13.4828 5.41468L14.1862 5.96182L16.2649 5.26411C16.6457 5.74975 16.9638 6.27356 17.2192 6.82494L15.5459 8.18005L15.6915 9.02621ZM9.50224 6.05937C7.32492 6.05937 5.55978 7.73047 5.55978 9.79177C5.55978 11.8531 7.32492 13.5242 9.50224 13.5242C11.6796 13.5242 13.4447 11.8531 13.4447 9.79177C13.4447 7.73047 11.6796 6.05937 9.50224 6.05937ZM11.2764 11.4714C11.0437 11.6923 10.7671 11.8675 10.4627 11.9868C10.1582 12.1062 9.83179 12.1674 9.50224 12.1669C8.83247 12.1669 8.20302 11.9188 7.72813 11.4714C7.49477 11.2511 7.30972 10.9893 7.18363 10.701C7.05754 10.4128 6.99289 10.1038 6.9934 9.79177C6.9934 9.15769 7.25548 8.56178 7.72813 8.11219C8.20302 7.66261 8.83247 7.41661 9.50224 7.41661C10.172 7.41661 10.8015 7.66261 11.2764 8.11219C11.5097 8.33248 11.6948 8.59428 11.8209 8.88253C11.9469 9.17078 12.0116 9.47978 12.0111 9.79177C12.0111 10.4259 11.749 11.0218 11.2764 11.4714Z" fill="#0F172A"/>
</svg>
